<svg width="27" height="26" viewBox="0 0 27 26" fill="none" xmlns="http://www.w3.org/2000/svg">
<path d="M26.7179 12.342L14.18 0.271553C13.8039 -0.0905177 13.1961 -0.0905177 12.82 0.271553L0.282071 12.342C-0.0940236 12.7041 -0.0940236 13.2892 0.282071 13.6512C0.658165 14.0133 1.26593 14.0133 1.64201 13.6512L1.92166 13.382V24.143C1.92166 25.1644 2.78967 26 3.85057 26H23.1397C24.2006 26 25.0686 25.1644 25.0686 24.143V13.382L25.3483 13.6512C25.5412 13.8369 25.7823 13.9298 26.0331 13.9298C26.2839 13.9298 26.525 13.8369 26.7179 13.6606C27.094 13.2985 27.094 12.7041 26.7179 12.342ZM10.6015 24.1434V19.501C10.6015 17.9689 11.9036 16.7155 13.4949 16.7155C15.0863 16.7155 16.3883 17.9689 16.3883 19.501V24.1434H10.6015ZM23.1395 24.1434H18.3172V19.501C18.3172 16.9383 16.1569 14.8585 13.4949 14.8585C10.833 14.8585 8.67263 16.9383 8.67263 19.501V24.1434H3.85034V11.5255L13.4949 2.24049L23.1395 11.5255V24.1434Z" fill="#4CB3A0"/>
</svg>
