<svg width="20" height="20" viewBox="0 0 20 20" fill="none" xmlns="http://www.w3.org/2000/svg">
<path d="M18.8667 14.7576C18.0116 12.9725 16.5395 11.8082 14.491 11.2971C14.0717 11.1931 13.6199 11.2949 13.2826 11.5705L11.6719 12.8866C11.4967 13.0296 11.2519 13.0469 11.0633 12.9306C9.42435 11.9195 8.0806 10.5757 7.06943 8.93697C6.9528 8.7478 6.97047 8.5032 7.11333 8.32834L8.42956 6.71729C8.70522 6.38006 8.80753 5.92842 8.70299 5.50915C8.19183 3.46062 7.02758 1.98852 5.24223 1.13343C4.85217 0.946306 4.39084 0.956529 4.00897 1.16077C3.14475 1.62208 2.32109 2.14514 1.56141 2.7149C1.14009 3.03019 0.932511 3.54711 1.01956 4.06366C1.6014 7.50915 3.46153 10.9464 6.25748 13.7426C9.05363 16.5385 12.4909 18.3986 15.9366 18.9805C16.0146 18.9937 16.0925 19 16.1697 19C16.6044 19 17.0174 18.7963 17.285 18.4388C17.855 17.6789 18.3781 16.8553 18.8394 15.9913C19.0434 15.6094 19.0536 15.1483 18.8667 14.7576ZM18.0834 15.5874C17.6424 16.4131 17.1431 17.1994 16.5992 17.9249C16.4768 18.0882 16.2765 18.1691 16.0793 18.1352C12.8077 17.583 9.53484 15.8077 6.86351 13.1366C4.19237 10.4652 2.41708 7.19238 1.8648 3.92099C1.83132 3.72252 1.91187 3.52311 2.07537 3.40072C2.80063 2.85701 3.5869 2.35775 4.41279 1.91672C4.48739 1.87691 4.56998 1.85682 4.65276 1.85682C4.72791 1.85682 4.80305 1.87338 4.87225 1.90649C6.43774 2.6563 7.41876 3.90277 7.87133 5.71656C7.91076 5.87449 7.87133 6.04599 7.76586 6.17508L6.44945 7.78612C6.07575 8.24371 6.03167 8.88693 6.33989 9.38693C7.42174 11.1405 8.85961 12.5783 10.6133 13.6602C11.1128 13.9682 11.7562 13.9243 12.2142 13.5504L13.825 12.2342C13.9541 12.1289 14.126 12.0895 14.2835 12.1287C16.0975 12.5815 17.3438 13.5625 18.0936 15.1276C18.1632 15.2733 18.1595 15.445 18.0834 15.5874Z" fill="#4CB3A0" stroke="#4CB3A0" stroke-width="0.5"/>
</svg>
