<svg width="22" height="21" viewBox="0 0 29 28" fill="none" xmlns="http://www.w3.org/2000/svg">
<path d="M4.24504 23.9024C6.60767 26.179 9.70809 27.6002 13.0261 27.9275C16.3439 28.2546 19.6772 27.4678 22.4664 25.6989C23.2479 25.1991 23.7555 24.3861 23.8495 23.4847C23.9432 22.5832 23.6131 21.6884 22.9504 21.0482L22.3938 20.5161L23.1282 19.8057V19.8059C23.6046 19.3444 23.8205 18.6883 23.7073 18.0453C23.5941 17.4024 23.1661 16.8525 22.5585 16.5694L18.4124 14.6359C18.0915 14.4861 17.7074 14.553 17.4607 14.8016L16.1633 16.1044H16.1238C14.3832 15.4302 13.0063 14.0926 12.3167 12.4061L13.6635 11.1033H13.6637C13.9134 10.866 13.981 10.5019 13.8317 10.1954L11.8228 6.17853C11.5297 5.5915 10.9607 5.17796 10.2961 5.06931C9.63131 4.96043 8.95344 5.16952 8.47675 5.63059L7.69298 6.38559C6.80675 7.24441 6.1941 8.33138 5.92853 9.51751C5.66275 10.7036 5.7551 11.9384 6.19477 13.0751C6.9866 15.118 8.22202 16.9729 9.81757 18.5148C11.4134 20.0566 13.3325 21.2496 15.4451 22.0133C17.3182 22.6903 19.4088 22.4977 21.1161 21.4909C21.1494 21.5454 21.1891 21.5956 21.2346 21.6407L21.7846 22.1726C22.0974 22.4748 22.2534 22.8967 22.2093 23.3223C22.1652 23.7476 21.9258 24.1313 21.5574 24.3675C19.0865 25.9316 16.135 26.6268 13.1974 26.3368C10.2596 26.0469 7.51421 24.7892 5.42074 22.7748C3.78379 21.1936 2.61871 19.214 2.04852 17.0455C1.47837 14.8769 1.52453 12.5996 2.18175 10.454C2.83921 8.30839 4.08333 6.3746 5.78297 4.85657C8.14995 2.76482 11.2373 1.5998 14.4435 1.58871C17.6496 1.57737 20.7452 2.72079 23.1281 4.79593C25.0575 6.48063 26.4098 8.6944 27.0048 11.1418C27.5995 13.5891 27.4088 16.1537 26.4576 18.4933C26.2858 18.9033 26.49 19.3703 26.9138 19.5366C27.3374 19.7028 27.8202 19.5052 27.9923 19.0955C29.0713 16.4533 29.2897 13.5554 28.619 10.7895C27.948 8.02376 26.4195 5.52245 24.2381 3.61994C21.5497 1.27819 18.0569 -0.0121437 14.4391 8.61458e-05C10.8213 0.0125293 7.33813 1.32682 4.66653 3.68678C2.74795 5.39838 1.34276 7.57927 0.599671 9.99964C-0.143237 12.4196 -0.196986 14.9889 0.444615 17.4359C1.0862 19.8828 2.39924 22.117 4.24502 23.9018L4.24504 23.9024ZM16.0211 20.5225C14.1278 19.8377 12.4084 18.7678 10.9791 17.3851C9.5496 16.0026 8.44356 14.3394 7.73558 12.5081C7.40847 11.659 7.34024 10.7374 7.53872 9.85194C7.73719 8.9665 8.19412 8.15501 8.85523 7.51331L9.63901 6.75518C9.71826 6.67541 9.8276 6.63052 9.942 6.63097H10.0178C10.1614 6.64919 10.2854 6.73673 10.347 6.86338L12.0956 10.3675L11.1075 11.3232H11.1078C10.8985 11.5287 10.7558 11.7889 10.6973 12.072C10.6387 12.3548 10.6669 12.6481 10.7784 12.9159C11.623 15.0352 13.3392 16.7206 15.5174 17.5698L15.6129 17.6049V17.6047C15.9005 17.7158 16.2162 17.7414 16.5189 17.6778C16.8217 17.6143 17.0978 17.4645 17.3121 17.2481L18.2374 16.3179L21.86 18.0031V18.0029C21.9866 18.0622 22.0757 18.1771 22.0991 18.3111C22.1228 18.445 22.0778 18.5819 21.9785 18.6783L21.1948 19.4365C20.5309 20.0784 19.6904 20.5221 18.7728 20.7146C17.8556 20.9072 16.9004 20.8406 16.0211 20.5226L16.0211 20.5225Z" fill="#4CB3A0"/>
</svg>
