<svg width="23" height="26" viewBox="0 0 23 26" fill="none" xmlns="http://www.w3.org/2000/svg">
<path fill-rule="evenodd" clip-rule="evenodd" d="M11.6857 16.5167V18.6383C11.6857 18.6985 11.7156 18.7498 11.7679 18.78L13.4344 19.7385C13.5439 19.8018 13.6806 19.7232 13.6806 19.5968V16.764L20.5585 12.8072L22.7266 14.0544C22.9006 14.1545 23 14.3263 23 14.5266V21.8109C23 22.0111 22.9006 22.1828 22.7266 22.283L16.3956 25.925C16.2216 26.025 16.0227 26.025 15.8487 25.925L9.51781 22.2828C9.3438 22.1828 9.24436 22.0109 9.24436 21.8107V15.2189L11.1979 16.3429C11.3521 16.4315 11.5175 16.4896 11.6859 16.5169L11.6857 16.5167ZM12.1823 0.0750336C12.0083 -0.0250112 11.8094 -0.0250112 11.6354 0.0750336L5.30451 3.71717C5.1305 3.81722 5.03106 3.98906 5.03106 4.18934V11.4736C5.03106 11.6739 5.1305 11.8455 5.30451 11.9458L11.6354 15.5877C11.8094 15.6878 12.0083 15.6878 12.1823 15.5877L18.5133 11.9458C18.6873 11.8457 18.7867 11.6739 18.7867 11.4736L18.7869 4.18934C18.7869 3.98905 18.6875 3.81741 18.5134 3.71717L16.3454 2.46997L9.46753 6.42653V9.25939C9.46753 9.38576 9.3312 9.46432 9.22128 9.40105L7.55478 8.44256C7.50253 8.41256 7.47263 8.36109 7.47263 8.30091L7.47282 5.2794L14.3506 1.32224L12.1823 0.0750336ZM4.15555 9.31215L2.44147 10.2981V13.32C2.44147 13.3802 2.47137 13.4315 2.52361 13.4616L4.19012 14.4201C4.29965 14.4834 4.43637 14.4048 4.43637 14.2785V12.3213C4.54978 12.4722 4.69505 12.6017 4.86712 12.7004L8.36922 14.7152V19.9065L7.15176 20.607C6.97775 20.7071 6.77888 20.7071 6.60487 20.607L0.273442 16.9649C0.0994335 16.8648 0 16.693 0 16.4927V9.20842C0 9.00813 0.0994335 8.83649 0.273442 8.73625L4.15562 6.50311L4.15555 9.31215Z" fill="white"/>
</svg>
