<svg width="23" height="26" viewBox="0 0 23 26" fill="none" xmlns="http://www.w3.org/2000/svg">
<path d="M12.0099 16.216L12.6364 20.7909L11.3037 22.1396L9.97107 20.7909L10.5976 16.216H12.0099ZM11.1784 14.4492C10.8666 14.4533 10.5534 14.4344 10.2444 14.3953L10.5406 15.8519H12.0669L12.3744 14.3737C11.9786 14.4263 11.5785 14.4519 11.1784 14.4492ZM17.5002 11.9891C16.7327 12.7174 15.8229 13.3001 14.8234 13.7047L14.1628 16.9741L14.9715 20.1207C15.0128 20.439 14.9046 20.7587 14.6754 20.9947L12.1353 23.5519C11.9217 23.7717 11.6199 23.8972 11.3038 23.8972C10.9877 23.8972 10.6859 23.7717 10.4723 23.5519L7.93225 20.9947C7.70302 20.7587 7.59481 20.439 7.6361 20.1207L8.44483 16.9741L7.7956 13.7803C6.7833 13.3568 5.8635 12.7566 5.08469 12.0107C2.98033 13.0816 1.22618 14.6772 0.0116911 16.6247C0.0124783 18.9988 -0.0145661 20.7977 0.0110577 23.0596C0.0537725 25.2095 0.0116911 26 0.0116911 26C0.0116911 26 2.39223 26 7.51097 26C15.0968 26 7.51097 26 15.0968 26C19.2487 26 20.6835 26 22.9946 26C22.9946 26 22.9889 25.2285 22.9946 23.0596C22.996 20.8113 23.0777 16.6821 22.554 15.8519C21.3367 13.9218 19.5917 13.0533 17.5002 11.9891ZM11.3038 0C9.58241 0 7.93225 0.648744 6.71485 1.80056C5.49752 2.95372 4.81409 4.51693 4.81409 6.14761C4.81409 7.77826 5.49752 9.34144 6.71485 10.4947C7.93218 11.6479 9.58238 12.2952 11.3038 12.2952C13.0252 12.2952 14.6754 11.6478 15.8928 10.4947C17.1102 9.34151 17.7935 7.7783 17.7935 6.14761C17.7878 4.51831 17.103 2.95783 15.887 1.80608C14.6711 0.654268 13.0237 0.00542087 11.3038 0Z" fill="#F4F5FA"/>
</svg>
