<svg width="28" height="24" viewBox="0 0 28 24" fill="none" xmlns="http://www.w3.org/2000/svg">
<path d="M6.3 7.34894C4.36625 7.34894 2.8 5.70461 2.8 3.67447C2.8 1.64432 4.36625 0 6.3 0C8.23375 0 9.8 1.64432 9.8 3.67447C9.8 5.70461 8.23375 7.34894 6.3 7.34894ZM22.4 7.34894C20.4662 7.34894 18.9 5.70461 18.9 3.67447C18.9 1.64432 20.4662 0 22.4 0C24.3337 0 25.9 1.64432 25.9 3.67447C25.9 5.70461 24.3337 7.34894 22.4 7.34894ZM0 13.7195C0 11.0142 2.09125 8.81873 4.66812 8.81873H6.53625C7.23187 8.81873 7.8925 8.97948 8.4875 9.26425C8.43062 9.59496 8.40438 9.93944 8.40438 10.2885C8.40438 12.0431 9.13937 13.6185 10.2987 14.6979C10.29 14.6979 10.2812 14.6979 10.2681 14.6979H0.931875C0.42 14.6979 0 14.2569 0 13.7195ZM17.7319 14.6979C17.7231 14.6979 17.7144 14.6979 17.7013 14.6979C18.865 13.6185 19.5956 12.0431 19.5956 10.2885C19.5956 9.93944 19.565 9.59955 19.5125 9.26425C20.1075 8.97489 20.7681 8.81873 21.4638 8.81873H23.3319C25.9087 8.81873 28 11.0142 28 13.7195C28 14.2615 27.58 14.6979 27.0681 14.6979H17.7319ZM18.2 10.2885C18.2 12.7228 16.3188 14.6979 14 14.6979C11.6812 14.6979 9.8 12.7228 9.8 10.2885C9.8 7.85418 11.6812 5.87915 14 5.87915C16.3188 5.87915 18.2 7.85418 18.2 10.2885ZM5.6 22.2902C5.6 18.9097 8.21187 16.1677 11.4319 16.1677H16.5681C19.7881 16.1677 22.4 18.9097 22.4 22.2902C22.4 22.9654 21.8794 23.5166 21.2319 23.5166H6.76812C6.125 23.5166 5.6 22.97 5.6 22.2902Z" fill="white"/>
</svg>
