<svg width="28" height="21" viewBox="0 0 28 21" fill="none" xmlns="http://www.w3.org/2000/svg">
<path d="M1.4 2.92132C1.4 1.31003 2.65563 0 4.2 0H14C15.0369 0 15.9425 0.588828 16.4237 1.46066H18.69C19.7969 1.46066 20.7987 2.14078 21.2494 3.19519L23.5594 8.61788C23.5812 8.66809 23.5987 8.71374 23.6162 8.76395H23.8C25.3444 8.76395 26.6 10.074 26.6 11.6853V13.1459C27.3744 13.1459 28 13.7987 28 14.6066C28 15.4145 27.3744 16.0672 26.6 16.0672H25.2C25.2 18.4865 23.3188 20.4492 21 20.4492C18.6812 20.4492 16.8 18.4865 16.8 16.0672H11.2C11.2 18.4865 9.31875 20.4492 7 20.4492C4.68125 20.4492 2.8 18.4865 2.8 16.0672H1.4C0.625625 16.0672 0 15.4145 0 14.6066C0 13.7987 0.625625 13.1459 1.4 13.1459V11.6853C0.625625 11.6853 0 11.0325 0 10.2246V5.84263C0 5.03471 0.625625 4.38198 1.4 4.38198V2.92132ZM16.8 8.76395H20.5581L18.69 4.38198H16.8V8.76395ZM7 18.2582C8.15938 18.2582 9.1 17.2768 9.1 16.0672C9.1 14.8576 8.15938 13.8763 7 13.8763C5.84062 13.8763 4.9 14.8576 4.9 16.0672C4.9 17.2768 5.84062 18.2582 7 18.2582ZM23.1 16.0672C23.1 14.8576 22.1594 13.8763 21 13.8763C19.8406 13.8763 18.9 14.8576 18.9 16.0672C18.9 17.2768 19.8406 18.2582 21 18.2582C22.1594 18.2582 23.1 17.2768 23.1 16.0672Z" fill="white"/>
</svg>
