<svg width="19" height="20" viewBox="0 0 19 20" fill="none" xmlns="http://www.w3.org/2000/svg">
<path d="M15.1027 2.32701V1.03105C15.1027 0.769898 14.9634 0.528657 14.7373 0.398163C14.5113 0.267669 14.2326 0.267669 14.0066 0.398163C13.7805 0.528657 13.6412 0.769906 13.6412 1.03105V2.24905H5.35889V1.03105C5.35889 0.769898 5.21959 0.528657 4.99351 0.398163C4.76743 0.267669 4.48882 0.267669 4.26275 0.398163C4.03666 0.528657 3.89736 0.769906 3.89736 1.03105V2.32701C2.81295 2.49829 1.82495 3.05043 1.11085 3.88429C0.396576 4.71816 0.00279779 5.77923 0 6.87718V14.6722C0 15.8996 0.487567 17.0768 1.35551 17.9448C2.22345 18.8127 3.40069 19.3003 4.62813 19.3003H14.372C15.5994 19.3003 16.7766 18.8127 17.6446 17.9448C18.5125 17.0768 19.0001 15.8996 19.0001 14.6722V6.87718C18.9973 5.77923 18.6035 4.71816 17.8892 3.88429C17.1751 3.05043 16.1871 2.4983 15.1027 2.32701ZM4.62813 3.71058H14.372C15.0827 3.71319 15.7718 3.95493 16.3285 4.39683C16.8852 4.83855 17.2771 5.45481 17.4412 6.14641H1.55891C1.72301 5.45481 2.11479 4.83855 2.67156 4.39683C3.22827 3.95495 3.91745 3.71321 4.62813 3.71058ZM14.3715 17.8386H4.62813C3.78904 17.836 2.9852 17.5016 2.39178 16.9083C1.79852 16.3149 1.46412 15.5111 1.46153 14.672V7.60778H17.5384V14.672C17.5358 15.5111 17.2014 16.3149 16.6081 16.9083C16.0147 17.5016 15.2109 17.836 14.3718 17.8386H14.3715Z" fill="white"/>
<path d="M11.9065 10.2577L8.52559 13.6388L7.09325 12.2064C6.90664 12.0327 6.64305 11.9686 6.39756 12.0375C6.15223 12.1065 5.96039 12.2983 5.89141 12.5436C5.82257 12.7891 5.88668 13.0527 6.0604 13.2393L8.00916 15.1881C8.14618 15.3248 8.33181 15.4017 8.52558 15.4017C8.7192 15.4017 8.90499 15.3248 9.04201 15.1881L12.9394 11.2907V11.2905C13.1131 11.1041 13.1772 10.8405 13.1084 10.595C13.0394 10.3495 12.8475 10.1577 12.6022 10.0889C12.3567 10.0199 12.0931 10.084 11.9065 10.2577Z" fill="white"/>
</svg>
