<svg width="10" height="12" viewBox="0 0 10 12" fill="none" xmlns="http://www.w3.org/2000/svg">
<path d="M0.000146151 2.40015L2.40015 0.480147L2.40015 2.40015L0.000146151 2.40015Z" fill="#1F5D53"/>
<path d="M0.414661 12L8.70557 12C8.93357 12 9.12012 11.8071 9.12012 11.5714L9.12012 0.428574C9.12012 0.192859 8.93357 9.37366e-07 8.70557 9.17434e-07L3.31648 4.46304e-07L3.31648 3C3.31648 3.23571 3.12994 3.42857 2.90194 3.42857L0.000116144 3.42857L0.000115432 11.5714C0.000115411 11.8071 0.186662 12 0.414661 12ZM4.14557 2.35714L6.63284 2.35714C6.86084 2.35714 7.04739 2.55 7.04739 2.78571C7.04739 3.02143 6.86084 3.21429 6.63284 3.21429L4.14557 3.21429C3.91757 3.21429 3.73103 3.02143 3.73103 2.78571C3.73103 2.55 3.91757 2.35714 4.14557 2.35714ZM2.48739 4.5L6.63284 4.5C6.86084 4.5 7.04739 4.69286 7.04739 4.92857C7.04739 5.16429 6.86084 5.35714 6.63284 5.35714L2.48739 5.35714C2.25939 5.35714 2.07284 5.16429 2.07284 4.92857C2.07284 4.69286 2.25939 4.5 2.48739 4.5ZM2.48739 6.64286L6.63284 6.64286C6.86084 6.64286 7.04739 6.83572 7.04739 7.07143C7.04739 7.30714 6.86084 7.5 6.63284 7.5L2.48739 7.5C2.25939 7.5 2.07284 7.30714 2.07284 7.07143C2.07284 6.83571 2.25939 6.64286 2.48739 6.64286ZM2.48739 8.78571L6.63284 8.78571C6.86084 8.78571 7.04739 8.97857 7.04739 9.21429C7.04739 9.45 6.86084 9.64286 6.63284 9.64286L2.48739 9.64286C2.25939 9.64286 2.07284 9.45 2.07284 9.21429C2.07284 8.97857 2.25939 8.78571 2.48739 8.78571Z" stroke-width="1" stroke="#1f5d53" />
</svg>
