<svg width="34" height="31" viewBox="0 0 34 31" fill="none" xmlns="http://www.w3.org/2000/svg">
<path d="M11.8456 0.000824804C11.7366 0.0149827 11.6324 0.0546261 11.5406 0.11615L0.327761 7.49693C0.12188 7.63414 -0.00175102 7.86865 1.87475e-05 8.11963V22.8812C1.87475e-05 23.2887 0.323976 23.6192 0.723362 23.6192H17.4296C17.9612 27.7797 21.4611 31 25.6809 31C27.5006 31 29.1938 30.3997 30.5641 29.3855C30.72 29.2709 30.8249 29.0977 30.8555 28.9041C30.8862 28.7105 30.8406 28.5123 30.728 28.3532C30.6155 28.1941 30.4457 28.0873 30.256 28.0559C30.0663 28.0245 29.8722 28.0713 29.7163 28.1861C28.5835 29.0243 27.1903 29.524 25.6809 29.524C21.8769 29.524 18.8085 26.3935 18.8085 22.5122C18.8085 18.631 21.8768 15.5005 25.6809 15.5005C29.4851 15.5005 32.5533 18.631 32.5533 22.5122C32.5533 23.1769 32.3633 23.6729 32.0784 24.0001C31.7939 24.327 31.4081 24.5191 30.8237 24.5191C29.8615 24.5191 28.9362 23.6768 28.9362 22.7545V19.5601C28.9549 19.1523 28.6463 18.8063 28.2467 18.7873C27.847 18.7682 27.5081 19.0831 27.4892 19.4908C26.9722 19.0733 26.3447 18.8218 25.6469 18.8218C23.8152 18.8218 22.4255 20.537 22.4255 22.5122C22.4255 24.4877 23.8152 26.2026 25.6469 26.2026C26.7139 26.2026 27.6217 25.6144 28.2015 24.7381C28.8285 25.5116 29.7981 25.9951 30.8237 25.9951C31.76 25.9951 32.6032 25.6239 33.1636 24.9804C33.724 24.3368 34 23.4655 34 22.5122C34 17.8333 30.2669 14.0243 25.6808 14.0243C25.0599 14.0243 24.4549 14.0995 23.8723 14.2318V8.11958C23.8741 7.8686 23.7504 7.63408 23.5446 7.49688L12.3317 0.116097C12.2071 0.0350072 12.061 -0.00540914 11.9134 0.000772264C11.8907 -0.000257421 11.8683 -0.000204881 11.8456 0.000824804ZM11.9362 1.62697L21.9057 8.18888L11.9362 14.6239L1.96673 8.18888L11.9362 1.62697ZM1.44678 9.59558L11.5519 16.123C11.787 16.2734 12.0855 16.2734 12.3206 16.123L22.4257 9.59558V14.7046C19.5606 15.9539 17.5172 18.8048 17.3731 22.1434H1.44711L1.44678 9.59558ZM25.6474 20.2977C26.5725 20.2977 27.4221 21.226 27.4221 22.5118C27.4221 23.7977 26.5726 24.7262 25.6474 24.7262C24.7221 24.7262 23.8726 23.7977 23.8726 22.5118C23.8726 21.226 24.7221 20.2977 25.6474 20.2977Z" fill="#4CB3A0"/>
</svg>
