<?xml version="1.0" encoding="utf-8"?>
<!-- Generator: Adobe Illustrator 16.0.3, SVG Export Plug-In . SVG Version: 6.00 Build 0)  -->
<!DOCTYPE svg PUBLIC "-//W3C//DTD SVG 1.1//EN" "http://www.w3.org/Graphics/SVG/1.1/DTD/svg11.dtd">
<svg version="1.1" id="Capa_1" xmlns="http://www.w3.org/2000/svg" xmlns:xlink="http://www.w3.org/1999/xlink" x="0px" y="0px"
	 width="512px" height="512px" viewBox="0 0 512 512" enable-background="new 0 0 512 512" xml:space="preserve">
<path fill-rule="evenodd" clip-rule="evenodd" fill="#D50000" d="M0.449,262.444c0-3.804,0-7.607,0-11.411
	c0.259-2.235,0.655-4.463,0.755-6.706c0.444-9.942,1.515-19.812,3.121-29.631c4.098-25.06,11.813-48.954,23.124-71.679
	c12.755-25.625,29.486-48.345,49.845-68.465c20.415-20.176,43.432-36.62,69.301-49.04c30.964-14.867,63.639-23.011,97.935-24.71
	c0.713-0.036,1.417-0.239,2.125-0.364c7.022,0,14.044,0,21.065,0c0.624,0.127,1.243,0.315,1.873,0.372
	c6.552,0.593,13.123,1.011,19.654,1.774c17.41,2.034,34.39,6.021,50.959,11.725c38.731,13.333,72.249,34.825,100.807,64.187
	c43.243,44.462,70.526,106.188,71.701,170.188c0.015,0.785,0.219,1.566,0.334,2.349c0,3.657,0,7.314,0,10.971
	c-0.113,0.783-0.296,1.563-0.33,2.348c-0.173,3.942-0.209,7.892-0.473,11.827c-1.007,15.059-3.513,29.883-7.249,44.495
	c-18.709,73.175-68.499,133.968-136.599,166.688c-30.738,14.77-63.168,23.039-97.23,24.88c-0.715,0.038-1.421,0.234-2.131,0.357
	c-8.046,0-16.091,0-24.138,0c-0.637-0.12-1.27-0.318-1.912-0.35c-9.503-0.453-18.935-1.536-28.32-3.088
	c-26.087-4.313-50.889-12.512-74.418-24.565C79.518,453.483,33.693,399.488,12.935,334.521
	c-5.085-15.916-8.627-32.178-10.341-48.806c-0.742-7.196-1.161-14.425-1.748-21.636C0.801,263.527,0.585,262.989,0.449,262.444z
	 M256.531,306.055c0.292-0.013,0.584-0.025,0.876-0.039c0.532,0.7,0.991,1.474,1.606,2.09
	c15.294,15.321,30.605,30.627,45.915,45.934c0.724,0.724,1.447,1.449,2.202,2.14c9.114,8.34,23.219,8.114,32.006-0.558
	c5.674-5.6,11.331-11.22,16.886-16.938c1.508-1.553,2.845-3.369,3.873-5.273c4.909-9.096,3.223-20.113-4.144-27.495
	c-15.757-15.792-31.544-31.555-47.317-47.331c-0.611-0.611-1.206-1.241-1.924-1.982c0.704-0.728,1.294-1.354,1.902-1.962
	c15.359-15.362,30.721-30.723,46.08-46.085c0.724-0.724,1.449-1.448,2.139-2.205c8.289-9.095,8.015-23.335-0.705-32.007
	c-5.859-5.827-11.761-11.617-17.785-17.271c-5.147-4.831-11.357-6.724-18.381-5.805c-5.282,0.691-9.642,3.147-13.396,6.877
	c-16.031,15.929-32.097,31.825-48.155,47.727c-0.393,0.39-0.843,0.722-1.297,1.106c-0.421-0.388-0.75-0.673-1.059-0.979
	c-11.746-11.63-23.491-23.26-35.233-34.893c-4.572-4.53-9.088-9.118-13.72-13.586c-9.107-8.785-22.858-8.687-31.775,0.176
	c-5.707,5.671-11.398,11.359-17.067,17.068c-8.847,8.908-8.9,22.851-0.131,31.773c4.204,4.277,8.438,8.525,12.66,12.785
	c11.841,11.949,23.684,23.896,35.52,35.849c0.438,0.443,0.812,0.95,1.247,1.463c-0.464,0.504-0.794,0.889-1.15,1.248
	c-11.526,11.643-23.055,23.283-34.584,34.922c-4.582,4.624-9.217,9.195-13.741,13.875c-8.458,8.747-8.742,22.147-0.523,30.977
	c5.779,6.208,11.696,12.298,17.762,18.226c5.684,5.555,12.69,7.274,20.448,5.938c5.078-0.874,9.204-3.494,12.816-7.121
	c15.484-15.547,31.021-31.043,46.525-46.571C255.521,307.509,255.993,306.748,256.531,306.055z"/>
<path fill-rule="evenodd" clip-rule="evenodd" fill="#FFFFFF" d="M246.655,0.439c-0.708,0.125-1.413,0.328-2.125,0.364
	c-34.296,1.699-66.971,9.843-97.935,24.71c-25.87,12.42-48.887,28.864-69.301,49.04c-20.358,20.121-37.09,42.841-49.845,68.465
	c-11.312,22.725-19.026,46.619-23.124,71.679c-1.605,9.819-2.676,19.689-3.121,29.631c-0.1,2.242-0.496,4.471-0.755,6.706
	c0-83.532,0-167.063,0-250.595C82.518,0.439,164.586,0.439,246.655,0.439z"/>
<path fill-rule="evenodd" clip-rule="evenodd" fill="#FFFFFF" d="M0.449,262.444c0.136,0.545,0.352,1.083,0.396,1.636
	c0.587,7.211,1.006,14.439,1.748,21.636c1.714,16.628,5.256,32.89,10.341,48.806c20.758,64.967,66.583,118.962,127.314,150.075
	c23.529,12.054,48.331,20.252,74.418,24.565c9.385,1.552,18.816,2.635,28.32,3.088c0.642,0.031,1.275,0.229,1.912,0.35
	c-81.483,0-162.967,0-244.45,0C0.449,429.215,0.449,345.829,0.449,262.444z"/>
<path fill-rule="evenodd" clip-rule="evenodd" fill="#FFFFFF" d="M513.049,251.034c-0.115-0.783-0.319-1.564-0.334-2.349
	c-1.175-64-28.458-125.726-71.701-170.188c-28.558-29.361-62.075-50.854-100.807-64.187c-16.569-5.704-33.549-9.691-50.959-11.725
	c-6.531-0.763-13.103-1.181-19.654-1.774c-0.63-0.057-1.249-0.245-1.873-0.372c81.776,0,163.553,0,245.328,0
	C513.049,83.971,513.049,167.502,513.049,251.034z"/>
<path fill-rule="evenodd" clip-rule="evenodd" fill="#FFFFFF" d="M269.037,512.6c0.71-0.123,1.416-0.319,2.131-0.357
	c34.063-1.841,66.492-10.11,97.23-24.88c68.1-32.72,117.89-93.513,136.599-166.688c3.736-14.612,6.242-29.437,7.249-44.495
	c0.264-3.936,0.3-7.885,0.473-11.827c0.034-0.785,0.217-1.564,0.33-2.348c0,83.532,0,167.063,0,250.595
	C431.712,512.6,350.375,512.6,269.037,512.6z"/>
<path fill-rule="evenodd" clip-rule="evenodd" fill="#FFFFFF" d="M256.531,306.055c-0.539,0.693-1.011,1.454-1.627,2.071
	c-15.503,15.528-31.041,31.024-46.525,46.571c-3.613,3.627-7.738,6.247-12.816,7.121c-7.757,1.337-14.764-0.383-20.448-5.938
	c-6.065-5.928-11.982-12.018-17.762-18.226c-8.219-8.829-7.935-22.229,0.523-30.977c4.524-4.68,9.16-9.251,13.741-13.875
	c11.53-11.639,23.058-23.279,34.584-34.922c0.356-0.358,0.686-0.743,1.15-1.248c-0.435-0.513-0.808-1.021-1.247-1.463
	c-11.836-11.954-23.679-23.9-35.52-35.849c-4.222-4.26-8.456-8.508-12.66-12.785c-8.769-8.922-8.715-22.865,0.131-31.773
	c5.669-5.708,11.361-11.396,17.067-17.068c8.917-8.863,22.668-8.961,31.775-0.176c4.632,4.468,9.148,9.056,13.72,13.586
	c11.743,11.633,23.488,23.263,35.233,34.893c0.309,0.306,0.638,0.591,1.059,0.979c0.454-0.384,0.904-0.717,1.297-1.106
	c16.059-15.902,32.124-31.798,48.155-47.727c3.754-3.73,8.113-6.186,13.396-6.877c7.023-0.919,13.233,0.974,18.381,5.805
	c6.024,5.655,11.926,11.444,17.785,17.271c8.72,8.672,8.994,22.912,0.705,32.007c-0.689,0.756-1.415,1.48-2.139,2.205
	c-15.359,15.362-30.721,30.723-46.08,46.085c-0.608,0.608-1.198,1.234-1.902,1.962c0.718,0.741,1.313,1.371,1.924,1.982
	c15.773,15.776,31.561,31.539,47.317,47.331c7.366,7.382,9.053,18.399,4.144,27.495c-1.028,1.904-2.365,3.721-3.873,5.273
	c-5.555,5.718-11.212,11.338-16.886,16.938c-8.787,8.672-22.892,8.897-32.006,0.558c-0.755-0.69-1.479-1.416-2.202-2.14
	c-15.31-15.307-30.621-30.612-45.915-45.934c-0.615-0.616-1.074-1.39-1.606-2.09C257.115,306.029,256.823,306.042,256.531,306.055z"
	/>
<g>
</g>
<g>
</g>
<g>
</g>
<g>
</g>
<g>
</g>
<g>
</g>
<g>
</g>
<g>
</g>
<g>
</g>
<g>
</g>
<g>
</g>
<g>
</g>
<g>
</g>
<g>
</g>
<g>
</g>
</svg>
