<svg width="100" height="100" viewBox="0 0 100 100" fill="none" xmlns="http://www.w3.org/2000/svg">
<path d="M50 2C43.151 2 36.533 3.415 30.329 6.204C27.919 7.288 26.844 10.12 27.928 12.53C29.011 14.939 31.843 16.013 34.253 14.931C39.215 12.7 44.513 11.568 50 11.568C71.191 11.568 88.432 28.808 88.432 50C88.432 71.192 71.192 88.432 50 88.432C31.302 88.432 15.384 75.091 12.151 56.71C11.949 55.559 11.797 54.383 11.701 53.214C11.613 52.153 11.568 51.071 11.568 50C11.568 47.358 9.426 45.216 6.784 45.216C4.142 45.216 2 47.358 2 50C2 51.333 2.056 52.68 2.165 54.003C2.286 55.462 2.474 56.929 2.727 58.368C6.768 81.333 26.649 98 50 98C76.467 98 98 76.467 98 50C98 23.533 76.468 2 50 2Z" fill="#1F5D53"/>
<path d="M11.081 30.592C11.884 31.111 12.783 31.359 13.673 31.359C15.242 31.359 16.78 30.587 17.696 29.171C19.143 26.931 20.833 24.832 22.719 22.931C24.579 21.055 24.567 18.025 22.691 16.165C20.816 14.304 17.786 14.317 15.926 16.192C13.575 18.563 11.466 21.182 9.66001 23.977C8.22601 26.197 8.86301 29.159 11.081 30.592Z" fill="#1F5D53"/>
<path d="M44.984 69.056C44.984 71.698 47.126 73.84 49.768 73.84C52.41 73.84 54.552 71.698 54.552 69.056V47.05C54.552 44.408 52.41 42.266 49.768 42.266C47.126 42.266 44.984 44.408 44.984 47.05V69.056Z" fill="#1F5D53"/>
<path d="M49.769 36.525C52.411 36.525 54.553 34.383 54.553 31.741V30.784C54.553 28.142 52.411 26 49.769 26C47.127 26 44.985 28.142 44.985 30.784V31.741C44.984 34.383 47.126 36.525 49.769 36.525Z" fill="#1F5D53"/>
</svg>
