<svg width="28" height="21" viewBox="0 0 28 21" fill="none" xmlns="http://www.w3.org/2000/svg">
<path fill-rule="evenodd" clip-rule="evenodd" d="M4.07729 0.791992C2.57804 0.791992 1.3591 2.06375 1.3591 3.62796V5.04594C0.607347 5.04594 0 5.67961 0 6.46393V10.7179C0 11.5022 0.607347 12.1359 1.3591 12.1359V13.5538C0.607347 13.5538 0 14.1875 0 14.9718C0 15.7562 0.607347 16.3898 1.3591 16.3898H2.7182C2.7182 18.7384 4.54448 20.6438 6.79549 20.6438C9.04649 20.6438 10.8728 18.7384 10.8728 16.3898H16.3092C16.3092 18.7384 18.1355 20.6438 20.3865 20.6438C22.6375 20.6438 24.4638 18.7384 24.4638 16.3898H25.8229C26.5746 16.3898 27.182 15.7562 27.182 14.9718C27.182 14.1875 26.5746 13.5538 25.8229 13.5538V12.1359C25.8229 10.5717 24.6039 9.2999 23.1047 9.2999H22.9263C22.9093 9.25115 22.8923 9.20684 22.8711 9.1581L20.6286 3.89383C20.1911 2.87022 19.2185 2.20998 18.144 2.20998H15.9439C15.4767 1.36362 14.5976 0.791992 13.591 0.791992H4.07729ZM19.9575 9.2999H16.3092V5.04594H18.144L19.9575 9.2999ZM8.83413 16.3898C8.83413 17.5641 7.92099 18.5168 6.79549 18.5168C5.66999 18.5168 4.75684 17.5641 4.75684 16.3898C4.75684 15.2155 5.66999 14.2628 6.79549 14.2628C7.92099 14.2628 8.83413 15.2155 8.83413 16.3898ZM20.3865 14.2628C21.512 14.2628 22.4251 15.2155 22.4251 16.3898C22.4251 17.5641 21.512 18.5168 20.3865 18.5168C19.261 18.5168 18.3478 17.5641 18.3478 16.3898C18.3478 15.2155 19.261 14.2628 20.3865 14.2628ZM13.5912 8.07292C13.5912 11.0217 11.2007 13.4122 8.25185 13.4122C5.30303 13.4122 2.91254 11.0217 2.91254 8.07292C2.91254 5.1241 5.30303 2.73361 8.25185 2.73361C11.2007 2.73361 13.5912 5.1241 13.5912 8.07292ZM8.95193 5.00602C8.95193 5.16326 8.88368 5.30979 8.74718 5.44559C8.61428 5.57782 8.48138 5.64393 8.34847 5.64393C8.31974 5.65108 8.29639 5.65465 8.27843 5.65465L8.15989 5.66538C7.98029 5.66538 7.81865 5.60641 7.67497 5.48847C7.53489 5.37054 7.46484 5.21866 7.46484 5.03282V4.93633C7.46484 4.75049 7.53848 4.59503 7.68575 4.46995C7.83661 4.3413 8.00903 4.27697 8.203 4.27697H8.22994L8.41313 4.29841C8.52448 4.29841 8.63942 4.35917 8.75796 4.48067C8.88009 4.59861 8.94115 4.71833 8.94115 4.83984L8.95193 4.88808V5.00602ZM7.23855 7.39686C7.05177 7.30752 6.95837 7.22353 6.95837 7.14491C6.95837 7.06629 6.99609 7.00375 7.07152 6.95729C7.33374 6.80004 7.74861 6.72142 8.31614 6.72142H8.4724C8.66636 6.72142 8.77592 6.81076 8.80106 6.98945C8.81543 7.08594 8.82261 7.73637 8.82261 8.94073C8.82261 10.1415 8.84776 10.8312 8.89805 11.0099C8.94833 11.185 9.06867 11.3208 9.25904 11.4173C9.44942 11.5103 9.5446 11.605 9.5446 11.7015C9.5446 11.8373 9.0992 11.9052 8.20839 11.9052L8.04675 11.9105H7.38941C7.1272 11.9105 6.99609 11.8462 6.99609 11.7175C6.99609 11.6103 7.07511 11.5067 7.23316 11.4066C7.3948 11.3066 7.50615 11.1958 7.56722 11.0743C7.63546 10.942 7.66959 10.6329 7.66959 10.1469L7.67497 9.97533V9.80915L7.68036 9.5572V9.39102L7.68575 9.22484C7.68575 8.37786 7.65702 7.88468 7.59954 7.7453C7.54566 7.60235 7.42533 7.48621 7.23855 7.39686Z" fill="#1F5D53"/>
</svg>
