<svg width="46" height="33" viewBox="0 0 46 33" fill="none" xmlns="http://www.w3.org/2000/svg">
<path d="M2.3 4.71429C2.3 2.11406 4.36281 0 6.9 0H23C24.7034 0 26.1912 0.950223 26.9819 2.35714H30.705C32.5234 2.35714 34.1694 3.45469 34.9097 5.15625L38.7047 13.9071C38.7406 13.9882 38.7694 14.0618 38.7981 14.1429H39.1C41.6372 14.1429 43.7 16.2569 43.7 18.8571V21.2143C44.9722 21.2143 46 22.2676 46 23.5714C46 24.8752 44.9722 25.9286 43.7 25.9286H41.4C41.4 29.8326 38.3094 33 34.5 33C30.6906 33 27.6 29.8326 27.6 25.9286H18.4C18.4 29.8326 15.3094 33 11.5 33C7.69063 33 4.6 29.8326 4.6 25.9286H2.3C1.02781 25.9286 0 24.8752 0 23.5714C0 22.2676 1.02781 21.2143 2.3 21.2143V18.8571C1.02781 18.8571 0 17.8038 0 16.5V9.42857C0 8.12478 1.02781 7.07143 2.3 7.07143V4.71429ZM27.6 14.1429H33.7741L30.705 7.07143H27.6V14.1429ZM11.5 29.4643C13.4047 29.4643 14.95 27.8806 14.95 25.9286C14.95 23.9766 13.4047 22.3929 11.5 22.3929C9.59531 22.3929 8.05 23.9766 8.05 25.9286C8.05 27.8806 9.59531 29.4643 11.5 29.4643ZM37.95 25.9286C37.95 23.9766 36.4047 22.3929 34.5 22.3929C32.5953 22.3929 31.05 23.9766 31.05 25.9286C31.05 27.8806 32.5953 29.4643 34.5 29.4643C36.4047 29.4643 37.95 27.8806 37.95 25.9286Z" fill="white"/>
</svg>
