<svg width="16" height="16" viewBox="0 0 16 16" fill="none" xmlns="http://www.w3.org/2000/svg">
<path d="M15.6917 14.1283L10.7975 9.32111C11.5446 8.33024 11.9556 7.11918 11.9556 5.87155C11.9556 4.29372 11.3205 2.82572 10.1996 1.72475C9.07874 0.623779 7.58444 0 5.97779 0C4.37141 0 2.87685 0.623812 1.75596 1.72475C0.635066 2.82572 0 4.29346 0 5.87155C0 7.44938 0.635099 8.91738 1.75596 10.0184C2.87685 11.1193 4.37114 11.7431 5.97779 11.7431C7.13591 11.7431 8.21957 11.4129 9.19082 10.8257L14.1226 15.6698C14.3467 15.8899 14.6456 16 14.9073 16C15.1689 16 15.4676 15.8899 15.692 15.6698C16.1027 15.2659 16.1027 14.5686 15.6917 14.1283H15.6917ZM3.32524 8.47715C1.86817 7.04598 1.86817 4.73402 3.32524 3.30284C4.03516 2.60554 5.00641 2.23877 5.97799 2.23877C6.94931 2.23877 7.88332 2.60584 8.63074 3.30284C9.34066 4.00015 9.71407 4.91756 9.71407 5.90844C9.71407 6.89932 9.34035 7.81674 8.63074 8.51405C7.13618 9.90833 4.78231 9.90833 3.32531 8.47719L3.32524 8.47715Z" fill="#1F5D53"/>
</svg>
