<?xml version="1.0" encoding="utf-8"?>
<!-- Generator: Adobe Illustrator 16.0.3, SVG Export Plug-In . SVG Version: 6.00 Build 0)  -->
<!DOCTYPE svg PUBLIC "-//W3C//DTD SVG 1.1//EN" "http://www.w3.org/Graphics/SVG/1.1/DTD/svg11.dtd">
<svg version="1.1" id="Capa_1" xmlns="http://www.w3.org/2000/svg" xmlns:xlink="http://www.w3.org/1999/xlink" x="0px" y="0px"
	 width="512px" height="512px" viewBox="0 0 512 512" enable-background="new 0 0 512 512" xml:space="preserve">
<path fill-rule="evenodd" clip-rule="evenodd" fill="#49B886" d="M510.635,243.67c-0.07-1.959-0.172-3.911-0.287-5.858
	c-0.033-0.468-0.054-0.939-0.09-1.406c-0.001-0.016-0.002-0.032-0.004-0.049c-2.349-30.833-10.193-60.125-22.536-86.918
	c-0.748-1.589-1.502-3.177-2.286-4.756c-8.193-16.501-17.645-31.662-28.339-45.49c-0.122-0.156-0.239-0.315-0.362-0.471
	c-0.151-0.195-0.308-0.385-0.46-0.579c-13.544-17.16-29.249-32.531-46.699-45.716c-0.831-0.621-1.657-1.247-2.497-1.858
	c-0.132-0.097-0.266-0.193-0.397-0.29c-17.281-12.53-36.425-23.041-57.42-31.528c-18.463-7.464-37.638-12.474-57.395-15.032
	c-8.195-1.06-16.461-1.563-24.693-2.334c-0.368-0.034-0.733-0.097-1.097-0.168C262.729,1.086,259.375,1,256,1
	c-3.163,0-6.308,0.078-9.443,0.192c-0.421,0.089-0.842,0.17-1.266,0.188c-31.405,1.379-61.552,8.243-90.387,20.773
	C81.719,53.957,27.435,118.335,8.506,195.795c-3.59,14.689-5.845,29.592-6.7,44.701c-0.068,1.192-0.294,2.375-0.519,3.557
	C1.104,248.014,1,251.995,1,256c0,4.012,0.104,7.999,0.288,11.966c0.222,1.185,0.445,2.368,0.513,3.562
	c0.846,15.025,3.046,29.854,6.629,44.459c11.095,45.217,32.876,84.567,65.344,117.918c29.06,29.852,63.447,51.309,103.013,64.402
	c16.256,5.38,32.896,9.079,49.927,10.921c5.554,0.6,11.138,0.927,16.707,1.399c0.193,0.017,0.385,0.055,0.577,0.084
	C247.976,510.896,251.976,511,256,511c4.17,0,8.315-0.107,12.437-0.306c0.2-0.03,0.4-0.054,0.603-0.065
	c15.722-0.897,30.906-3.037,45.556-6.404c32.411-7.621,62.439-21.42,88.769-40.096c10.655-7.637,20.9-16.197,30.727-25.695
	c2.353-2.274,4.646-4.584,6.892-6.923c39.792-41.926,65.466-97.367,69.454-158.725c0.055-1.25,0.108-2.501,0.184-3.75
	c0.013-0.213,0.051-0.425,0.076-0.637C510.893,264.29,511,260.158,511,256c0-3.894-0.102-7.764-0.274-11.615
	C510.681,244.147,510.644,243.909,510.635,243.67z M370.503,226.987c-22.191,22.562-44.626,44.886-66.952,67.313
	c-15.356,15.423-30.693,30.86-46.05,46.281c-6.066,6.092-13.286,10.107-21.804,11.448c-12.493,1.966-23.745-0.992-32.813-9.93
	c-20.465-20.171-40.72-40.557-60.986-60.933c-8.083-8.124-11.932-18.078-11.577-29.521c0.586-18.908,14.77-34.928,33.441-37.782
	c12.843-1.963,24.257,1.387,33.641,10.388c10.118,9.707,19.898,19.764,29.811,29.683c0.646,0.647,1.16,1.429,1.95,2.417
	c1.393-1.389,2.366-2.351,3.331-3.321c21.173-21.308,42.344-42.616,63.518-63.921c6.427-6.468,12.8-12.992,19.301-19.387
	c19.998-19.674,54.631-12.291,64.334,13.993C385.582,199.792,382.649,214.638,370.503,226.987z"/>
<g>
</g>
<g>
</g>
<g>
</g>
<g>
</g>
<g>
</g>
<g>
</g>
<g>
</g>
<g>
</g>
<g>
</g>
<g>
</g>
<g>
</g>
<g>
</g>
<g>
</g>
<g>
</g>
<g>
</g>
</svg>
