<svg width="24" height="32" viewBox="0 0 24 32" fill="none" xmlns="http://www.w3.org/2000/svg">
<path fill-rule="evenodd" clip-rule="evenodd" d="M0 4C0 1.79375 1.79375 0 4 0H14V8C14 9.10625 14.8938 10 16 10H24V28C24 30.2063 22.2063 32 20 32H4C1.79375 32 0 30.2063 0 28V4ZM24 8H16V0L24 8ZM8.23072 14.6905C8.10604 14.6905 7.99339 14.767 7.94555 14.8848C7.89772 15.0026 7.92426 15.1376 8.01252 15.228L11.7818 19.0733C11.842 19.1347 11.921 19.1655 12 19.1655C12.079 19.1655 12.158 19.1347 12.2182 19.0733L15.9875 15.2277C16.0757 15.1376 16.1023 15.0022 16.0544 14.8845C16.0069 14.767 15.894 14.6902 15.7693 14.6902H14.2862V10.9815C14.2862 10.8077 14.1484 10.6667 13.9777 10.6667H10.0223C9.85195 10.6667 9.71368 10.8077 9.71368 10.9815V14.6905H8.23072ZM7.76408 25.1771C8.58195 25.1771 9.24734 24.4979 9.24734 23.6638V22.364C9.24734 21.5296 8.58195 20.8507 7.76408 20.8507H5.95058C5.60986 20.8507 5.33333 21.1329 5.33333 21.4804V26.6476C5.33333 26.9952 5.60986 27.2773 5.95058 27.2773C6.29131 27.2773 6.56784 26.9952 6.56784 26.6476V25.1771H7.76408ZM12.3383 27.2773C13.2055 27.2773 13.9107 26.5579 13.9107 25.6731V22.4547C13.9107 21.5702 13.2055 20.8507 12.3383 20.8507H10.6139C10.2732 20.8507 9.99669 21.1329 9.99669 21.4804V26.6476C9.99669 26.9952 10.2732 27.2773 10.6139 27.2773H12.3383ZM15.9871 22.1098H18.0494C18.3902 22.1098 18.6667 21.8278 18.6667 21.4801C18.6667 21.1325 18.3902 20.8503 18.0494 20.8503H15.3699C15.0292 20.8503 14.7526 21.1325 14.7526 21.4801V26.6472C14.7526 26.9949 15.0292 27.2771 15.3699 27.2771C15.7106 27.2771 15.9871 26.9949 15.9871 26.6472V24.6934H17.1248C17.4654 24.6934 17.7421 24.4114 17.7421 24.0637C17.7421 23.7161 17.4654 23.4339 17.1248 23.4339H15.9871V22.1098ZM6.56755 22.1099H7.76378C7.90113 22.1099 8.01254 22.2239 8.01254 22.3634V23.6635C8.01254 23.8036 7.90082 23.9173 7.76378 23.9173H6.56755V22.1099ZM12.3387 22.1099H11.2316V26.0175H12.3387C12.5251 26.0175 12.6766 25.8629 12.6766 25.6728V22.4544C12.6763 22.2645 12.5248 22.1099 12.3387 22.1099Z" fill="#497B73"/>
</svg>
