<svg width="24" height="23" viewBox="0 0 24 23" fill="none" xmlns="http://www.w3.org/2000/svg">
<path fill-rule="evenodd" clip-rule="evenodd" d="M23.7037 4.18517L21.7945 6.01506L17.7235 2.11369L19.6329 0.283806C20.0284 -0.0947898 20.6709 -0.0944144 21.0657 0.283806L23.7037 2.81204C24.0988 3.19064 24.0988 3.8068 23.7037 4.18517ZM2.49136 16.9696L0 23L6.29261 20.6124C5.92293 19.8092 5.40372 19.0847 4.74472 18.4532C4.08531 17.8214 3.32949 17.3239 2.49136 16.9696ZM3.32096 15.916C4.198 16.3235 4.99473 16.8668 5.69731 17.5401C6.39989 18.2134 6.96669 18.9769 7.392 19.8174L20.8418 6.928L16.7708 3.02664L3.32096 15.916Z" fill="#1F5D53"/>
</svg>
