<?xml version="1.0" encoding="UTF-8"?>
<svg width="512px" height="512px" version="1.1" viewBox="0 0 700 700" xmlns="http://www.w3.org/2000/svg" xmlns:xlink="http://www.w3.org/1999/xlink">
 <g fill="#1f5d53">
  <path d="m433.12 336.88c0 9.6641-7.8359 17.5-17.5 17.5s-17.5-7.8359-17.5-17.5 7.8359-17.5 17.5-17.5 17.5 7.8359 17.5 17.5"/>
  <path d="m301.88 223.12c0 9.6641-7.8359 17.5-17.5 17.5s-17.5-7.8359-17.5-17.5 7.8359-17.5 17.5-17.5 17.5 7.8359 17.5 17.5"/>
  <path d="m350 455c96.688 0 175-78.312 175-175s-78.312-175-175-175-175 78.312-175 175 78.312 175 175 175zm109.38-118.12c0 24.062-19.688 43.75-43.75 43.75s-43.75-19.688-43.75-43.75 19.688-43.75 43.75-43.75 43.75 19.688 43.75 43.75zm-42.438-149.62c4.8125-5.25 13.125-5.6875 18.375-0.875s5.6875 13.125 0.875 18.375l-153.12 167.56c-2.625 2.625-6.125 4.375-9.625 4.375-3.0625 0-6.125-1.3125-8.75-3.5-5.25-4.8125-5.6875-13.125-0.875-18.375zm-132.56-7.875c24.062 0 43.75 19.688 43.75 43.75s-19.688 43.75-43.75 43.75-43.75-19.688-43.75-43.75 19.688-43.75 43.75-43.75z"/>
  <path d="m126.88 516.25c0 7.4375 5.6875 13.125 13.125 13.125s13.125-5.6875 13.125-13.125v-43.312c51.625 52.938 121.62 82.688 196.88 82.688 151.81 0 275.62-123.81 275.62-275.62s-123.81-275.62-275.62-275.62c-73.5 0-142.62 28.875-194.69 80.938-5.25 5.25-5.25 13.562 0 18.375s13.562 5.25 18.375 0c47.25-47.25 109.81-73.062 176.31-73.062 137.38 0 249.38 112 249.38 249.38s-112 249.38-249.38 249.38c-70 0-134.75-28.438-182-78.75h50.75c7.4375 0 13.125-5.6875 13.125-13.125s-5.6875-13.125-13.125-13.125h-78.75c-7.4375 0-13.125 5.6875-13.125 13.125z"/>
  <path d="m89.25 312.38c-7 1.3125-11.812 7.875-10.5 15.312 2.625 14.875 6.5625 30.188 11.812 44.625 1.75 5.25 7 8.75 12.25 8.75 1.3125 0 3.0625-0.4375 4.375-0.875 7-2.625 10.5-10.062 7.875-16.625-4.8125-13.125-8.3125-26.688-10.5-40.25-1.3125-7.4375-8.3125-12.25-15.312-10.938z"/>
  <path d="m88.375 255.94h1.75c6.5625 0 12.25-4.8125 13.125-11.375 3.5-26.25 11.375-51.188 23.188-74.812 3.0625-6.5625 0.4375-14.438-6.125-17.5s-14.438-0.4375-17.5 6.125c-12.688 26.25-21.438 53.812-25.375 82.688-1.3125 7 3.5 13.562 10.938 14.875z"/>
 </g>
</svg>
