<svg width="23" height="25" viewBox="0 0 23 25" fill="none" xmlns="http://www.w3.org/2000/svg">
<path fill-rule="evenodd" clip-rule="evenodd" d="M11.9202 15.8814V17.9215C11.9202 17.9793 11.9491 18.0287 11.9996 18.0577L13.6097 18.9793C13.7156 19.0402 13.8476 18.9646 13.8476 18.8431V16.1192L20.4929 12.3146L22.5877 13.5139C22.7558 13.6101 22.8519 13.7753 22.8519 13.9679V20.972C22.8519 21.1646 22.7558 21.3296 22.5877 21.426L16.4708 24.9279C16.3027 25.024 16.1106 25.024 15.9424 24.9279L9.82559 21.4258C9.65746 21.3296 9.56139 21.1644 9.56139 20.9718V14.6336L11.4489 15.7143C11.5978 15.7995 11.7577 15.8554 11.9204 15.8816L11.9202 15.8814ZM12.4 0.0721477C12.2319 -0.0240492 12.0397 -0.0240492 11.8716 0.0721477L5.75476 3.5742C5.58664 3.6704 5.49057 3.83563 5.49057 4.02821V11.0323C5.49057 11.2249 5.58664 11.39 5.75476 11.4863L11.8716 14.9882C12.0397 15.0844 12.2319 15.0844 12.4 14.9882L18.5168 11.4863C18.685 11.3901 18.781 11.2249 18.781 11.0323L18.7812 4.02821C18.7812 3.83563 18.6852 3.67059 18.517 3.5742L16.4222 2.37497L9.77701 6.17936V8.90326C9.77701 9.02477 9.64529 9.10031 9.53909 9.03947L7.92894 8.11784C7.87846 8.089 7.84957 8.03951 7.84957 7.98164L7.84976 5.07634L14.495 1.27138L12.4 0.0721477ZM4.64466 8.95399L2.98854 9.90201V12.8077C2.98854 12.8655 3.01744 12.9149 3.06791 12.9439L4.67806 13.8655C4.78389 13.9264 4.91599 13.8508 4.91599 13.7293V11.8474C5.02557 11.9925 5.16592 12.117 5.33217 12.2119L8.71584 14.1493V19.1408L7.53955 19.8144C7.37142 19.9106 7.17928 19.9106 7.01116 19.8144L0.893834 16.3124C0.72571 16.2162 0.629639 16.0509 0.629639 15.8584V8.85425C0.629639 8.66167 0.72571 8.49663 0.893834 8.40024L4.64474 6.253L4.64466 8.95399Z" fill="#1F5D53"/>
</svg>
