<svg width="24" height="23" viewBox="0 0 25 24" fill="none" xmlns="http://www.w3.org/2000/svg">
<path d="M9.18887 1.63712C9.18863 1.96866 9.45733 2.23755 9.78887 2.23755H12.6947H15.6014C15.9326 2.23755 16.2011 1.96917 16.2014 1.63796L16.2021 0.612923C16.2021 0.275514 15.8941 0 15.517 0H9.87467C9.49755 0 9.18961 0.275514 9.18961 0.612923L9.18887 1.63712Z" fill="#0D3831"/>
<path fill-rule="evenodd" clip-rule="evenodd" d="M21.6122 18.7698V20.7698C21.6122 22.0205 20.0362 23.7696 18.9316 23.7696H6.2373C4.7373 23.7696 3.38985 21.7698 3.38985 20.2698V18.7698L3.38816 6.27006H0.846215C-0.281799 6.27006 -0.282208 3.27006 0.845806 3.27006C1.97382 3.27006 12.4998 3.27006 12.4998 3.27006H24.1538C25.2818 3.27006 25.2822 6.27006 24.1542 6.27006H21.6122V18.7698ZM7.49898 19.5113C6.9467 19.5113 6.7373 19.3219 6.7373 18.7696V9.26977C6.7373 8.71749 6.9467 8.26977 7.49898 8.26977H9.49898C10.0513 8.26977 10.2373 8.71749 10.2373 9.26977V18.7696C10.2373 19.3219 10.0513 19.5113 9.49898 19.5113H7.49898ZM15.499 19.5113C14.9467 19.5113 14.7373 19.3221 14.7373 18.7698V9.26977C14.7373 8.71749 14.9467 8.26977 15.499 8.26977H17.499C18.0513 8.26977 18.2373 8.71749 18.2373 9.26977V18.7698C18.2373 19.3221 18.0513 19.5113 17.499 19.5113H15.499Z" fill="#1F5D53"/>
</svg>
