<svg width="83" height="83" viewBox="0 0 83 83" fill="none" xmlns="http://www.w3.org/2000/svg">
<path d="M57.022 51.4195C59.3204 47.1997 60.5211 42.1289 60.5211 37.1789C60.5211 25.1558 52.52 16.4289 41.5004 16.4289C30.4773 16.4289 22.4797 25.1561 22.4797 37.1789C22.4797 42.1284 23.6786 47.1991 25.9769 51.4195C17.5216 54.6176 10.3759 60.2105 10.3759 67.4374C10.3759 68.3143 10.707 69.1562 11.3046 69.7966C19.2484 78.3104 29.9702 83 41.5015 83C53.0301 83 63.7536 78.3104 71.6954 69.7966C72.2931 69.1567 72.6259 68.3136 72.6259 67.4374C72.6253 60.2101 65.4771 54.617 57.022 51.4195ZM41.4998 23.3453C49.8144 23.3453 53.6035 30.5153 53.6035 37.1789C53.6035 44.3592 49.8476 54.4705 41.4998 54.4705C33.1513 54.4705 29.396 44.3592 29.396 37.1789C29.3954 30.5154 33.1816 23.3453 41.4998 23.3453ZM41.4998 76.0832C32.439 76.0832 23.9704 72.5943 17.4815 66.2251C18.5387 62.7671 23.9254 59.2203 30.4435 57.1522C33.3703 59.76 37.0611 61.3872 41.5004 61.3872C45.9384 61.3872 49.6293 59.7594 52.5543 57.1522C59.076 59.2214 64.4597 62.7669 65.5194 66.2251C59.0278 72.5943 50.5599 76.0832 41.5011 76.0832H41.4998ZM41.4998 0C18.6147 0 0 18.6178 0 41.4999C0 47.4155 1.21762 53.1273 3.62088 58.4828C4.19683 59.7643 5.4578 60.526 6.7786 60.526C7.25142 60.526 7.73328 60.4283 8.19222 60.2202C9.93511 59.4386 10.7131 57.3924 9.93156 55.6495C7.92991 51.1927 6.91681 46.432 6.91681 41.5C6.91681 22.4298 22.4298 6.91673 41.4999 6.91673C60.5685 6.91673 76.0831 22.4298 76.0831 41.5C76.0831 46.429 75.0663 51.1892 73.0677 55.6472C72.2843 57.3901 73.0641 59.4364 74.807 60.2179C76.5481 61.0049 78.595 60.2233 79.3766 58.4798C81.7805 53.1243 83 47.4119 83 41.5C83 18.6179 64.3817 0 41.4998 0Z" fill="#4CB3A0"/>
</svg>
